<?xml version="1.0" encoding="UTF-8"?>
<svg width="14px" height="23px" viewBox="0 0 14 23" version="1.1" xmlns="http://www.w3.org/2000/svg" xmlns:xlink="http://www.w3.org/1999/xlink">
    <!-- Generator: Sketch 41.2 (35397) - http://www.bohemiancoding.com/sketch -->
    <title>Social/Glassdoor-Color@1x</title>
    <desc>Created with Sketch.</desc>
    <defs></defs>
    <g id="Desktop" stroke="none" stroke-width="1" fill="none" fill-rule="evenodd">
        <g id="Elements" transform="translate(-1085.000000, -1194.000000)">
            <g id="Social" transform="translate(877.000000, 1183.000000)">
                <g id="Glassdoor" transform="translate(193.000000, 0.000000)">
                    <g id="Social/Glassdoor-Color">
                        <g>
                            <rect id="Rectangle-9" x="0" y="0" width="44" height="44"></rect>
                            <path d="M20.5895676,13.6456773 C20.3586553,13.6185112 20.127743,13.6592604 19.9239968,13.7271758 C19.7202507,13.8086742 19.5300876,13.944505 19.3806737,14.121085 C19.2176768,14.297665 19.1090122,14.5014112 19.0139307,14.7459066 C18.9460153,14.990402 18.9460153,15.2620635 18.9595984,15.5473081 L18.9595984,30.3392793 L25.1806478,28.0844885 C25.3436447,28.0301562 25.4930585,27.9350746 25.6424724,27.7992438 C25.7783032,27.6769962 25.9005508,27.5275823 25.9956324,27.3510023 C26.0907139,27.1744223 26.1857955,26.9842592 26.2401278,26.7940961 C26.2944601,26.603933 26.2401278,26.4001869 26.2401278,26.1964407 L26.2401278,15.2213143 L28.5356678,15.357145 L28.5356678,27.5275823 C28.5356678,27.7584946 28.4813355,27.9894069 28.4134201,28.2203192 C28.3455048,28.4512316 28.2504232,28.6549777 28.1553417,28.8587239 C28.0466771,29.048887 27.9108463,29.23905 27.7614324,29.3884639 C27.6120186,29.5378777 27.4490217,29.6601254 27.2724417,29.7144577 L17.6012906,33.7350486 C17.2888798,33.8572963 16.9900521,33.9252117 16.7048075,33.9252117 C16.4195629,33.9252117 16.1479014,33.8572963 15.903406,33.7350486 C15.6724936,33.6128009 15.4551644,33.4226378 15.3329167,33.1917255 C15.1835029,32.9472301 15.0205059,32.6619855 15.0069229,32.3359917 L15.0069229,13.5641788 C14.9797567,13.1566865 15.034089,12.7763604 15.1427536,12.4367834 C15.2514183,12.0972065 15.4415813,11.8119619 15.6724936,11.5810496 C15.903406,11.3501372 16.1750675,11.1871403 16.5010614,11.0920588 C16.8134721,10.9969772 17.139466,10.9698111 17.5062091,11.0377265 L28.5900002,13.0887711 L28.5764171,14.5421604 L20.5895676,13.6456773 L20.5895676,13.6456773 Z" id="Shape" fill="#7CB228"></path>
                        </g>
                    </g>
                </g>
            </g>
        </g>
    </g>
</svg>